<svg width="40" height="40" viewBox="0 0 40 40" fill="none" xmlns="http://www.w3.org/2000/svg">
<g id="free-icon-target-1848908 1" clip-path="url(#clip0_9_3307)">
<g id="Group">
<path id="Vector" d="M29.4766 1.96875C28.3984 3.04688 27.4688 4.03125 27.4141 4.15625C27.3359 4.35156 27.3906 4.71094 27.7734 6.64844L28.2266 8.92188L23.375 13.7734C19.6484 17.5 18.4844 18.7109 18.3672 18.9844C18.1641 19.4375 18.1563 20.1563 18.3516 20.5938C18.7266 21.4219 19.4297 21.8359 20.3516 21.7813C21.0391 21.7344 21.2656 21.6172 21.9922 20.9297L22.5703 20.3828L22.4844 20.6797C22.2813 21.4141 21.8281 21.9844 21.1563 22.3516C20.6953 22.6016 20.6172 22.6172 19.9609 22.6172C19.1172 22.6172 18.6797 22.4375 18.125 21.875C17.2266 20.9844 17.1016 19.6484 17.8125 18.5781C18.1016 18.1406 18.8203 17.6406 19.3281 17.5078C19.9297 17.3594 20.1172 16.7422 19.6953 16.3203C19.4219 16.0547 19.2422 16.0391 18.625 16.25C15.8438 17.2109 15.0234 20.8047 17.1094 22.8906C19.0391 24.8203 22.3438 24.2969 23.5469 21.8594C24.0938 20.7656 24 20.1094 23.2891 20.0078L22.9688 19.9609L27.0547 15.875L31.1484 11.7813L33.3516 12.2266C34.6719 12.4922 35.6406 12.6484 35.7734 12.6172C35.9141 12.5859 36.6406 11.9141 38 10.5547L40.0078 8.53906L39.9844 8.16406C39.9688 7.86719 39.9219 7.75781 39.7656 7.64844C39.6484 7.5625 38.9141 7.38281 37.875 7.17188C36.9375 6.98438 36.1719 6.80469 36.1719 6.76562C36.1719 6.72656 36.2266 6.63281 36.2969 6.55469C36.5 6.32812 36.6328 5.85156 36.6406 5.34375C36.6484 3.73438 34.75 2.76562 33.4609 3.71875C33.1641 3.94531 33.2344 4.13281 32.8125 1.99219C32.4375 0.101562 32.3828 0 31.8047 0H31.4531L29.4766 1.96875ZM31.6875 3.63281L31.9844 5.15625L30.7422 6.40625C30.0547 7.09375 29.4766 7.625 29.4453 7.59375C29.4219 7.5625 29.2734 6.89062 29.1094 6.09375L28.8281 4.64844L30.0938 3.38281C30.7969 2.67969 31.3672 2.10938 31.375 2.10938C31.3828 2.10938 31.5234 2.79688 31.6875 3.63281ZM35.0547 4.9375C35.1797 5.05469 35.2344 5.19531 35.2344 5.38281C35.2344 5.64844 34.8906 6.00781 27.8672 13.0234C21.0938 19.7969 20.4844 20.3906 20.25 20.3906C19.9531 20.3906 19.6094 20.1016 19.6094 19.8438C19.6094 19.75 19.6563 19.5859 19.7188 19.4688C19.7813 19.3516 23.0938 16 27.0859 12.0078C33.8672 5.23438 34.3594 4.76562 34.6094 4.76562C34.7734 4.76562 34.9375 4.82812 35.0547 4.9375ZM36.4688 8.33594L37.9063 8.61719L36.625 9.89844L35.3516 11.1719L33.9063 10.8828C33.1094 10.7266 32.4453 10.5859 32.4219 10.5703C32.375 10.5313 34.8672 8.04688 34.9609 8.04688C35 8.04688 35.6875 8.17188 36.4688 8.33594Z" fill="#CDD9F5"/>
<path id="Vector_2" d="M17.9686 0.164062C13.2811 0.679688 9.15611 2.64062 5.89048 5.89844C4.17173 7.60938 3.13267 9.05469 2.07017 11.2109C1.08579 13.1953 0.492045 15.1172 0.140483 17.4609C-0.0157675 18.5391 -0.000142466 21.7578 0.179545 22.8906C1.28892 30.0391 5.83579 35.8594 12.4061 38.5547C14.8358 39.5469 17.203 40 19.9764 40C22.1405 40 23.8202 39.7578 25.7811 39.1641C28.8514 38.2344 31.5311 36.6406 33.8983 34.3359C36.7967 31.5156 38.7342 27.9766 39.5311 24.0547C40.0936 21.2812 40.0311 17.9297 39.367 15.2734C39.0702 14.0938 38.7186 13.0859 38.5389 12.9141C38.3124 12.6797 37.8045 12.6641 37.578 12.8906C37.3124 13.1562 37.3202 13.3672 37.6092 14.2891C37.8983 15.2109 38.203 16.5 38.3749 17.5391C38.4374 17.9375 38.4764 18.8594 38.4764 20.0781C38.4686 22.2188 38.3592 23.1094 37.8514 24.9453C36.0311 31.5703 30.6405 36.6797 23.9061 38.1562C22.4374 38.4766 21.6952 38.5547 19.9608 38.5469C18.2186 38.5469 17.2655 38.4453 15.742 38.0859C12.4217 37.3047 9.30454 35.5703 6.90611 33.1719C1.24204 27.4922 -0.172018 18.9688 3.36704 11.8203C4.28111 9.98438 5.46079 8.35156 6.94517 6.875C9.28111 4.54688 12.2342 2.875 15.4295 2.07031C17.1405 1.63281 18.0311 1.53125 19.9608 1.53125C22.2655 1.52344 23.4686 1.70312 25.5155 2.35156C26.617 2.70312 26.828 2.71094 27.1092 2.40625C27.2967 2.20312 27.3202 1.75 27.1483 1.5C26.9295 1.19531 24.6483 0.546875 22.7733 0.265625C21.828 0.125 18.8905 0.0625 17.9686 0.164062Z" fill="white" fill-opacity="0.7"/>
<path id="Vector_3" d="M18.3048 5.47654C15.4923 5.80467 12.6954 6.99998 10.5469 8.78904C7.79695 11.0859 5.96101 14.375 5.43757 17.9453C5.28132 19.039 5.27351 21.0156 5.42976 22.1015C6.27351 28.0078 10.5235 32.7656 16.2891 34.25C18.5626 34.8359 21.2735 34.8437 23.5938 34.2578C27.3673 33.3125 30.7032 30.789 32.6641 27.375C34.5704 24.0625 35.1016 20.0937 34.1329 16.3515C33.7891 15.0078 33.0938 13.3281 32.711 12.9062C32.4844 12.664 31.9688 12.664 31.7344 12.914C31.4766 13.1875 31.5157 13.5781 31.8673 14.289C33.6251 17.7812 33.6329 22.1875 31.8829 25.8125C31.2266 27.1797 30.4923 28.1953 29.3048 29.3828C28.1016 30.5781 27.0235 31.3594 25.6251 32.0234C21.9376 33.7812 17.6954 33.7422 14.0469 31.914C10.3907 30.0859 7.82039 26.7422 6.93757 22.6562C6.78132 21.9375 6.7657 21.6172 6.7657 20.039C6.7657 18.4844 6.78914 18.1406 6.92976 17.5C7.21101 16.2578 7.56257 15.2422 8.09382 14.1797C10.4063 9.50779 15.3048 6.60154 20.4766 6.82029C22.3048 6.89842 23.9141 7.30467 25.7188 8.14061C26.5079 8.49998 26.5782 8.52342 26.836 8.43748C27.3438 8.26561 27.4766 7.64842 27.086 7.28123C26.836 7.04686 25.5704 6.46873 24.5938 6.14061C22.6719 5.49998 20.2813 5.24998 18.3048 5.47654Z" fill="white" fill-opacity="0.7"/>
<path id="Vector_4" d="M18.6953 10.7892C14.1016 11.3829 10.625 15.3751 10.625 20.0392C10.625 24.3517 13.4375 27.9923 17.6406 29.1095C18.6797 29.3907 20.3359 29.4532 21.4844 29.2579C24.4453 28.7657 26.9688 26.9142 28.2969 24.2579C29 22.8673 29.25 21.7579 29.2578 20.0782C29.2578 18.7813 29.1562 18.0938 28.7891 17.0157C28.4844 16.0938 27.9844 15.836 27.4844 16.3282C27.2031 16.6095 27.2109 16.7657 27.5312 17.8126C28.1328 19.7501 27.9609 21.7579 27.0312 23.5938C24.9219 27.7735 19.7812 29.2345 15.7812 26.7813C14.8984 26.2423 13.6953 25.0313 13.1719 24.1563C12.3516 22.7735 11.9844 21.336 12.0547 19.7267C12.1016 18.586 12.3047 17.7345 12.7656 16.7501C13.5938 15.0001 14.8594 13.711 16.5391 12.9142C18.4688 12.0001 20.4844 11.8829 22.5859 12.5782C23.2422 12.797 23.3125 12.8048 23.5625 12.6954C23.8828 12.5626 24.0234 12.297 23.9531 11.922C23.8828 11.5626 23.7188 11.4532 22.8203 11.1642C21.5312 10.7501 20.0234 10.6095 18.6953 10.7892Z" fill="white" fill-opacity="0.7"/>
</g>
</g>
<defs>
<clipPath id="clip0_9_3307">
<rect width="40" height="40" fill="white"/>
</clipPath>
</defs>
</svg>
