<svg width="40" height="40" viewBox="0 0 40 40" fill="none" xmlns="http://www.w3.org/2000/svg">
<g id="free-icon-time-3777745 1">
<g id="Group">
<path id="Vector" d="M10.875 0.125027C10.4609 0.343777 10.3047 0.945339 10.5312 1.39065C10.5938 1.50784 11.2578 2.09378 12.0156 2.69534C12.7734 3.2969 13.3906 3.80471 13.3906 3.82815C13.3906 3.85159 13.1016 3.94534 12.7422 4.03909C11.1797 4.43753 9.17188 5.35159 7.75781 6.2969C3.54688 9.1094 0.867188 13.336 0.140625 18.3203C-0.046875 19.6016 -0.046875 21.9844 0.140625 23.1953C1.04688 29.1094 4.64062 33.9688 9.97656 36.4844C11.125 37.0235 12.6406 37.5235 13.1406 37.5313C13.5234 37.5391 13.5781 37.5156 13.8281 37.25C14.0391 37.0156 14.0938 36.8906 14.0938 36.6406C14.0938 36.2735 13.9297 35.8985 13.7188 35.7891C13.6328 35.7422 13.0938 35.5547 12.5078 35.3594C10.2734 34.625 8.39062 33.4844 6.67969 31.836C4.22656 29.4688 2.72656 26.625 2.13281 23.2422C1.92969 22.0391 1.89062 19.9453 2.05469 18.75C2.75 13.7188 5.90625 9.28127 10.3906 7.03909C11.2422 6.61721 12.1094 6.25784 12.7422 6.07034L13.1562 5.94534L12.1953 7.00002C11.1172 8.18752 10.9609 8.46877 11.1172 8.9844C11.2734 9.50784 11.9297 9.77346 12.4766 9.52346C12.6953 9.4219 16.4844 5.26565 16.6953 4.89846C16.8594 4.61721 16.8281 4.2344 16.6328 3.92971C16.5156 3.75784 12.625 0.609402 12 0.179714C11.6875 -0.0312233 11.2031 -0.0546608 10.875 0.125027Z" fill="white" fill-opacity="0.7"/>
<path id="Vector_2" d="M19.1172 1.71094C18.9844 1.79688 18.8281 1.94531 18.7734 2.03906C18.6562 2.26562 18.3906 3.96875 18.3906 4.51562C18.3906 4.89062 18.4219 4.96875 18.6562 5.20312C18.8906 5.4375 18.9766 5.46875 19.3125 5.46875C19.7109 5.46875 20.0234 5.29688 20.1875 5C20.2734 4.83594 20.5781 2.86719 20.5781 2.45312C20.5781 2.25781 20.5078 2.10938 20.3203 1.90625C19.9922 1.54688 19.5078 1.46875 19.1172 1.71094Z" fill="#CDD9F5"/>
<path id="Vector_3" d="M25.5859 3.84374C25.4062 3.96874 25.1406 4.33593 24.75 5.03905C24.2578 5.89843 24.1719 6.10937 24.1719 6.42187C24.1719 6.71874 24.2188 6.84374 24.3906 7.03905C24.5781 7.24999 24.6797 7.29687 25.0547 7.32812C25.4766 7.35937 25.5078 7.35155 25.7578 7.10155C25.8984 6.95312 26.25 6.40624 26.5391 5.89062C27.1719 4.74218 27.2109 4.46093 26.8047 4.01562C26.4609 3.64062 25.9766 3.5703 25.5859 3.84374Z" fill="#CDD9F5"/>
<path id="Vector_4" d="M31.0858 8.05477C30.7655 8.14852 29.0233 9.57821 28.9295 9.82039C28.7655 10.2579 28.9139 10.8048 29.2655 11.047C29.5076 11.2188 30.0936 11.2032 30.3826 11.0235C30.7811 10.7735 31.9998 9.74227 32.1717 9.50789C32.4608 9.11727 32.3436 8.42977 31.953 8.17196C31.7186 8.02352 31.3592 7.96883 31.0858 8.05477Z" fill="#CDD9F5"/>
<path id="Vector_5" d="M17.6797 10.336C17.5391 10.4298 17.375 10.6016 17.3203 10.7032C17.2422 10.8516 17.2188 11.9923 17.2188 15.5704C17.2188 19.5626 17.2344 20.2735 17.3359 20.4688C17.5859 20.961 17.375 20.9376 22.1641 20.9376H26.5312L26.7969 20.6719C27.0312 20.4376 27.0625 20.3594 27.0625 20.0001C27.0625 19.6407 27.0312 19.5626 26.7969 19.3282L26.5312 19.0626H22.8516H19.1719V14.9766C19.1719 11.0235 19.1641 10.8907 19.0156 10.6407C18.8516 10.3751 18.4531 10.1563 18.1328 10.1563C18.0312 10.1563 17.8281 10.2344 17.6797 10.336Z" fill="white" fill-opacity="0.7"/>
<path id="Vector_6" d="M33.2813 14.3359C32.1173 14.7266 31.9063 14.8828 31.8517 15.4141C31.7813 16.0234 32.1876 16.4844 32.7813 16.4844C32.9142 16.4844 33.5235 16.3281 34.1407 16.1328C35.4688 15.7109 35.6563 15.5625 35.6563 14.9062C35.6563 14.5625 35.6251 14.4844 35.3907 14.25C35.1485 14.0078 35.086 13.9844 34.711 13.9922C34.4376 13.9922 33.9376 14.1172 33.2813 14.3359Z" fill="#CDD9F5"/>
<path id="Vector_7" d="M33.3203 19.5547C32.9297 19.6953 32.7266 20.0078 32.7266 20.4844C32.7266 20.8359 32.7578 20.8984 33.0156 21.1406L33.3125 21.4062H34.6797H36.0469L36.3438 21.1406C36.6016 20.8984 36.6328 20.8359 36.6328 20.4844C36.6328 20.0078 36.4297 19.6953 36.0391 19.5547C35.8828 19.5 35.3281 19.4609 34.6797 19.4609C34.0313 19.4609 33.4766 19.5 33.3203 19.5547Z" fill="#CDD9F5"/>
<path id="Vector_8" d="M32.1408 25.6406C31.6251 25.9922 31.5705 26.8125 32.0314 27.1797C32.3205 27.4062 34.2189 28.125 34.5314 28.125C35.3283 28.125 35.7658 27.2969 35.3205 26.6328C35.172 26.4062 34.9845 26.3047 34.0939 25.9453C32.797 25.4297 32.5158 25.3906 32.1408 25.6406Z" fill="#CDD9F5"/>
<path id="Vector_9" d="M28.9999 30.8438C28.8749 30.9142 28.7264 31.086 28.6639 31.2188C28.3905 31.797 28.5389 32.0938 29.6092 33.0782C30.5467 33.9298 30.7733 34.0548 31.2655 33.9454C31.3905 33.922 31.5936 33.7892 31.7186 33.6642C31.9139 33.461 31.9452 33.3673 31.9452 32.9923V32.5548L31.1249 31.7813C30.6717 31.3517 30.203 30.9376 30.0702 30.8517C29.7811 30.672 29.2811 30.6642 28.9999 30.8438Z" fill="#CDD9F5"/>
<path id="Vector_10" d="M24.4296 34.4297C24.3359 34.4453 24.1484 34.5859 24.0156 34.7344C23.625 35.1797 23.6718 35.4922 24.3281 36.7969C24.9296 37.9922 25.0625 38.125 25.664 38.125C25.9218 38.125 26.0312 38.0781 26.2421 37.8672C26.6875 37.4219 26.6796 37.1875 26.164 36.0781C25.5781 34.8125 25.4687 34.6484 25.1562 34.5C24.8906 34.375 24.7656 34.3672 24.4296 34.4297Z" fill="#CDD9F5"/>
<path id="Vector_11" d="M18.5 36.1641C18.1953 36.2969 17.9219 36.7109 17.9219 37.0313C17.9219 37.7422 18.1016 39.3516 18.2031 39.5469C18.3594 39.8516 18.6172 40 19 40C19.4453 40 19.75 39.8359 19.9141 39.4922C20.0312 39.2344 20.0391 39.0938 19.9609 38.1016C19.8437 36.6875 19.8359 36.625 19.5625 36.3672C19.3203 36.1328 18.7969 36.0391 18.5 36.1641Z" fill="#CDD9F5"/>
</g>
</g>
</svg>
