<svg width="40" height="40" viewBox="0 0 40 40" fill="none" xmlns="http://www.w3.org/2000/svg">
<g id="free-icon-client-1848755 1" clip-path="url(#clip0_9_3289)">
<g id="Group">
<path id="Vector" d="M4.92969 3.13281C3.03125 3.45312 1.34375 4.76562 0.515625 6.57812C0.0078125 7.6875 0 7.74219 0 13.1094C0 17.7031 0.0078125 17.9766 0.15625 18.5625C0.851562 21.2734 3.24219 23.125 6.0625 23.125H6.64062V25.9062V28.6875L6.875 28.9219C7.08594 29.125 7.15625 29.1562 7.40625 29.1172C7.65625 29.0703 8.0625 28.6953 10.6641 26.0938L13.6328 23.125H14.4609H15.2891L15.3281 24.0391C15.3906 25.4141 15.8047 26.5156 16.6484 27.5625C17.375 28.4609 18.2812 29.0781 19.4922 29.5078L20.1172 29.7266L22.5859 29.75L25.0625 29.7734L28.7109 33.4453C32.2969 37.0469 32.3672 37.1094 32.6641 37.1094C32.8906 37.1094 33.0312 37.0547 33.1641 36.9141L33.3594 36.7266V33.2422V29.7656H34.0469C35.7109 29.7578 37.0547 29.1875 38.2812 27.9688C38.8203 27.4375 39.0234 27.1562 39.3203 26.5859C40.0078 25.2422 40 25.3594 40 19.7656C40 15.125 39.9922 14.8359 39.8438 14.25C39.3125 12.1406 37.6562 10.4844 35.4688 9.875C35.0078 9.75 34.4844 9.73438 29.8281 9.70312L24.6875 9.67969V9.05469C24.6875 6.15625 22.6484 3.71094 19.7812 3.15625C19.3125 3.07031 17.9453 3.04688 12.2812 3.05469C8.46875 3.0625 5.16406 3.09375 4.92969 3.13281ZM20.0234 4.66406C20.8125 4.96875 21.3906 5.32031 21.8672 5.79688C22.7656 6.67969 23.1953 7.65625 23.2656 8.92188L23.3047 9.6875H22.2188C20.4062 9.69531 19.3125 9.92188 18.2812 10.5234C17.5 10.9766 16.4297 12.0859 16.0391 12.8516C15.3438 14.2031 15.3594 14.1094 15.3281 18.1406L15.3047 21.7188H14.1562H13.0156L10.5312 24.1953L8.04688 26.6797V24.4375V22.1953L7.85938 21.9766C7.67188 21.7578 7.66406 21.7578 6.42969 21.7109C4.96875 21.6562 4.28125 21.4688 3.41406 20.8828C2.49219 20.2578 1.8125 19.2969 1.52344 18.2031C1.35156 17.5703 1.35156 8.60156 1.52344 7.96875C1.85938 6.6875 2.78906 5.53125 3.92188 4.97656C4.99219 4.44531 4.74219 4.46094 12.5391 4.47656L19.5703 4.49219L20.0234 4.66406ZM34.6016 11.1797C36.3516 11.4609 37.7656 12.6016 38.375 14.2422C38.5547 14.7266 38.5547 14.7266 38.5781 19.5469C38.6016 24.9297 38.6094 24.8438 38.0625 25.8984C37.7109 26.5781 36.8672 27.4453 36.2109 27.7812C35.3516 28.2344 35.0625 28.2969 33.6484 28.3516L32.3281 28.3984L32.1406 28.6172L31.9531 28.8359V31.7422V34.6484L28.9297 31.6328C27.2578 29.9688 25.8125 28.5547 25.7031 28.4844C25.5391 28.375 25.2031 28.3594 23.125 28.3594C20.9531 28.3594 20.6875 28.3438 20.1562 28.1953C18.5469 27.7578 17.3203 26.5312 16.8828 24.9219C16.7266 24.3672 16.7188 24.1484 16.7188 19.7891C16.7188 16.8125 16.75 15.1016 16.8047 14.8281C16.8516 14.6016 17.0234 14.125 17.1953 13.7734C17.8438 12.4062 19.1484 11.4297 20.6562 11.1797C21.25 11.0781 33.9922 11.0781 34.6016 11.1797Z" fill="white" fill-opacity="0.7"/>
<path id="Vector_2" d="M3.7501 8.41406C3.23448 8.60156 3.14073 9.32813 3.58604 9.66406C3.67979 9.74219 5.39073 9.75781 11.0001 9.76562H18.2892L18.4767 9.57031C18.672 9.38281 18.7345 9 18.6251 8.71094C18.4845 8.35156 18.5782 8.35938 11.0001 8.36719C7.07823 8.36719 3.8126 8.39063 3.7501 8.41406Z" fill="#CDD9F5"/>
<path id="Vector_3" d="M3.67979 12.4766C3.24229 12.7031 3.16416 13.2422 3.51573 13.5938C3.67198 13.75 3.79698 13.75 9.01573 13.75H14.3673L14.5235 13.5469C14.7423 13.2656 14.7345 12.875 14.5001 12.6016L14.3126 12.3828L9.1251 12.3594C4.30479 12.3438 3.92979 12.3516 3.67979 12.4766Z" fill="#CDD9F5"/>
<path id="Vector_4" d="M3.6094 16.4609C3.55471 16.4844 3.46096 16.6016 3.39065 16.7344C3.21096 17.0859 3.30471 17.4688 3.61721 17.6562C3.8594 17.8047 4.0469 17.8125 8.64846 17.8125C12.1875 17.8125 13.4844 17.7891 13.6328 17.7188C13.8594 17.6172 14.0625 17.2891 14.0625 17.0391C14.0625 16.9531 13.9688 16.7812 13.8594 16.6484L13.6563 16.4062L8.68753 16.4141C5.94534 16.4141 3.66409 16.4375 3.6094 16.4609Z" fill="#CDD9F5"/>
<path id="Vector_5" d="M19.4922 15.2734C19.2344 15.5234 19.2344 15.9297 19.4844 16.2266L19.6719 16.4453H27.6406H35.6094L35.8125 16.2578C36.0859 16 36.0938 15.5391 35.8203 15.2734L35.6328 15.0781H27.6563H19.6797L19.4922 15.2734Z" fill="#CDD9F5"/>
<path id="Vector_6" d="M19.5313 19.2031C19.4297 19.2891 19.3516 19.4609 19.3203 19.6641C19.2812 19.9531 19.3047 20.0234 19.5156 20.2344L19.75 20.4688H27.6172C35.7266 20.4688 35.6797 20.4688 35.9141 20.1641C36.0859 19.9453 36.0391 19.4688 35.8203 19.2578L35.6328 19.0625H27.6719C20.1797 19.0625 19.6953 19.0703 19.5313 19.2031Z" fill="#CDD9F5"/>
<path id="Vector_7" d="M19.6406 23.1406C19.2499 23.3281 19.1952 23.8906 19.5234 24.2266L19.7577 24.4531L27.7343 24.4375L35.7187 24.4141L35.8671 24.2266C36.0859 23.9609 36.0624 23.4766 35.8203 23.2422L35.6328 23.0469L27.7187 23.0547C22.4374 23.0547 19.7499 23.0859 19.6406 23.1406Z" fill="#CDD9F5"/>
</g>
</g>
<defs>
<clipPath id="clip0_9_3289">
<rect width="40" height="40" fill="white"/>
</clipPath>
</defs>
</svg>
