<svg width="40" height="40" viewBox="0 0 40 40" fill="none" xmlns="http://www.w3.org/2000/svg">
<g clip-path="url(#clip0_9_3205)">
<path d="M10.8172 0.117111C9.7 0.437424 8.68438 1.24211 8.05938 2.31242C7.7 2.9218 7.20781 3.41399 6.71563 3.6718C6.53594 3.75774 6.05938 3.9218 5.64531 4.02336C4.59844 4.2968 4.03594 4.6093 3.37969 5.26555C2.40313 6.24211 2.05156 7.24211 2.12188 8.78117C2.19219 10.2343 2.02813 10.7577 1.16094 11.7968C0.418751 12.6796 0.0906259 13.4374 0.0125009 14.4609C-0.0812491 15.6718 0.356251 16.9374 1.19219 17.8749C2.00469 18.789 2.19219 19.3827 2.12188 20.8437C2.09063 21.6405 2.10625 21.9374 2.21563 22.3437C2.65313 24.0312 3.98906 25.2734 5.73125 25.6249C5.98906 25.6796 6.23906 25.7421 6.29375 25.7734C6.34844 25.8046 5.37969 27.4921 3.54375 30.5468C0.629688 35.3905 0.551563 35.5312 0.770313 35.9296C0.809376 36.0077 0.950001 36.1171 1.075 36.1718C1.28594 36.2577 1.53594 36.1952 3.66875 35.5937C4.96563 35.2187 6.02813 34.9218 6.04375 34.9374C6.05156 34.953 6.29375 36.0312 6.575 37.3359C6.90313 38.8437 7.14531 39.7655 7.22344 39.8515C7.41875 40.0702 7.95781 40.0546 8.16875 39.8202C8.25469 39.7265 9.77813 37.2343 11.5438 34.2734L14.7625 28.9062H15.3797H15.9969L19.2156 34.2734C20.9813 37.2343 22.5047 39.7265 22.5906 39.828C22.8016 40.0546 23.3406 40.0702 23.5359 39.8515C23.6219 39.7577 23.8484 38.8671 24.1844 37.3359C24.4656 36.0312 24.7078 34.953 24.7156 34.9374C24.7234 34.9218 25.7859 35.2187 27.0672 35.5859C29.1297 36.1718 29.4344 36.2421 29.6531 36.164C29.7938 36.1171 29.95 36.0155 29.9891 35.9374C30.2078 35.5312 30.1297 35.3984 27.2234 30.5468L24.3797 25.8202L24.7469 25.7109C25.95 25.3671 26.2156 25.2577 26.6141 24.9999C27.5672 24.3827 28.2625 23.4218 28.5438 22.3437C28.6531 21.9296 28.6688 21.6405 28.6297 20.8202C28.5594 19.3827 28.7469 18.7968 29.5516 17.8984C30.6141 16.703 30.9969 15.203 30.6141 13.7187C30.4266 12.9687 30.1844 12.5234 29.5828 11.7812C28.7234 10.7343 28.5672 10.2187 28.6375 8.78117C28.7078 7.24211 28.3484 6.2343 27.3797 5.27336C26.7156 4.6093 26.1375 4.2968 25.1219 4.03117C24.7078 3.9218 24.2234 3.75774 24.0438 3.6718C23.5516 3.41399 23.0594 2.9218 22.7 2.31242C22.2391 1.52336 21.4656 0.781174 20.7547 0.445236C19.9656 0.0702362 19.4578 -0.0313263 18.4969 0.0155487C17.7625 0.0467987 17.6063 0.0858612 16.8641 0.390549C16.1141 0.703049 15.9891 0.734299 15.3797 0.734299C14.7703 0.734299 14.6453 0.703049 13.8953 0.390549C13.1063 0.0624237 13.0438 0.0467987 12.1375 0.0311737C11.5047 0.0155487 11.075 0.0389862 10.8172 0.117111ZM13.4891 1.6718C14.8563 2.21867 15.9031 2.21867 17.2625 1.6718C18.4109 1.21086 19.2625 1.19524 20.1297 1.63274C20.7234 1.92961 21.1453 2.3593 21.5594 3.05461C22.2547 4.25774 23.1844 4.9218 24.6609 5.2968C25.9656 5.62492 26.5906 6.1093 27.0828 7.16399C27.2859 7.60149 27.2938 7.66399 27.3016 8.9843C27.3094 10.164 27.3328 10.4218 27.4734 10.8593C27.6922 11.5155 27.9969 12.0312 28.5281 12.6484C29.2234 13.4374 29.5047 14.2187 29.4109 15.0859C29.3406 15.8046 29.1063 16.3124 28.5047 17.0312C27.4969 18.2421 27.2 19.1405 27.2938 20.7109C27.3406 21.453 27.325 21.7109 27.2156 22.078C26.8719 23.2734 25.9734 24.0702 24.6609 24.3359C23.3328 24.6093 22.3172 25.3515 21.5281 26.6327C20.8094 27.8046 19.9656 28.3124 18.7391 28.3046C18.1297 28.3046 18.0047 28.2812 17.2547 27.9609L16.4344 27.6171H15.3797H14.325L13.5047 27.9609C12.7547 28.2812 12.6297 28.3046 12.0203 28.3046C10.7938 28.3124 9.95 27.8046 9.23125 26.6405C8.44219 25.3593 7.41875 24.6093 6.09844 24.3359C4.78594 24.0702 3.8875 23.2734 3.54375 22.078C3.43438 21.703 3.41875 21.4452 3.46563 20.7109C3.55156 19.1484 3.25469 18.2265 2.25469 17.0312C1.65313 16.3046 1.40313 15.7734 1.34063 15.0702C1.25469 14.2109 1.54375 13.4296 2.23125 12.6484C2.7625 12.0312 3.06719 11.5155 3.28594 10.8593C3.42656 10.4218 3.45 10.164 3.45781 8.9843L3.46563 7.61711L3.71563 7.08586C4.00469 6.47649 4.56719 5.88274 5.09844 5.62492C5.29375 5.53117 5.79375 5.37492 6.20781 5.27336C7.54375 4.93742 8.52813 4.21086 9.20781 3.0468C9.61406 2.35149 10.0359 1.92961 10.6375 1.63274C11.4969 1.19524 12.3484 1.21086 13.4891 1.6718ZM8.12188 27.4218C8.44219 27.9843 9.1375 28.6952 9.66875 29.0234C10.4031 29.4609 11.0125 29.6327 11.9188 29.6405C12.3641 29.6484 12.7234 29.6562 12.7234 29.6562C12.7234 29.6718 8.02813 37.5312 8.00469 37.5546C7.99688 37.5624 7.80156 36.7265 7.58281 35.6874C7.12969 33.6015 7.05938 33.4374 6.575 33.4374C6.37188 33.4374 3.56719 34.1874 2.89531 34.414C2.84063 34.4374 2.80938 34.4218 2.825 34.3905C2.84063 34.3593 3.90313 32.578 5.18438 30.4374L7.5125 26.5312L7.7 26.7655C7.80156 26.8905 7.98906 27.1874 8.12188 27.4218ZM25.5828 30.4452C26.8563 32.5859 27.9188 34.3593 27.9344 34.3905C27.95 34.4218 27.9188 34.4374 27.8641 34.414C27.1922 34.1874 24.3875 33.4374 24.1844 33.4374C23.7 33.4374 23.6297 33.6015 23.1766 35.6874C22.9578 36.7265 22.7625 37.5624 22.7547 37.5546C22.7313 37.5312 18.0359 29.6718 18.0359 29.6562C18.0359 29.6562 18.3953 29.6484 18.8406 29.6405C19.7391 29.6327 20.4734 29.4296 21.1531 28.9921C21.6375 28.6796 22.3172 27.9609 22.6063 27.4609C22.8328 27.0624 23.1844 26.5624 23.2391 26.5624C23.2547 26.5624 24.3094 28.3124 25.5828 30.4452Z" fill="white" fill-opacity="0.7"/>
<path d="M14.4422 5.63281C10.8641 5.99219 7.77035 8.46094 6.62973 11.8594C5.84067 14.2266 6.03598 16.8203 7.18442 19.0625C8.45004 21.5234 10.7 23.2422 13.5204 23.8828C14.3172 24.0625 16.4422 24.0625 17.2391 23.8828C18.6219 23.5625 19.8016 23.0391 20.8485 22.2656C22.8016 20.8125 24.0829 18.7109 24.4891 16.3203C24.6766 15.2031 24.6063 13.6094 24.3329 12.5547C23.5594 9.58594 21.4344 7.21875 18.5516 6.13281C17.4422 5.71094 15.7079 5.5 14.4422 5.63281ZM16.9422 7.07031C18.2 7.33594 19.575 8.01562 20.5829 8.88281C21.6375 9.78125 22.6688 11.4531 23.0516 12.8906C23.2782 13.7578 23.3016 15.7422 23.0907 16.5938C22.3016 19.7344 19.8016 22.0625 16.6375 22.6172C13.1844 23.2266 9.55942 21.2422 8.14535 17.9688C7.63754 16.8047 7.53598 16.2812 7.53598 14.8438C7.53598 13.3125 7.66098 12.6953 8.26254 11.4453C9.83285 8.14844 13.4266 6.34375 16.9422 7.07031Z" fill="#CDD9F5"/>
<path d="M18.2703 11.8516C18.2078 11.875 17.1765 12.8594 15.989 14.0469L13.825 16.2031L13.1687 15.5625C12.4968 14.9062 12.3328 14.8359 11.9968 15.0156C11.739 15.1484 11.6375 15.3203 11.6296 15.625C11.6296 15.8672 11.7312 15.9922 12.5906 16.8516C13.45 17.7109 13.5828 17.8125 13.8171 17.8125C14.0671 17.8125 14.2781 17.625 16.6062 15.2891C18.9734 12.9297 19.1296 12.75 19.1296 12.4922C19.1296 12.0703 18.6453 11.7109 18.2703 11.8516Z" fill="#CDD9F5"/>
</g>
<defs>
<clipPath id="clip0_9_3205">
<rect width="40" height="40" fill="white"/>
</clipPath>
</defs>
</svg>
