<svg width="28" height="28" viewBox="0 0 28 28" fill="none" xmlns="http://www.w3.org/2000/svg">
<g clip-path="url(#clip0_6_2916)">
<path d="M6.97394 6.0637C6.34465 6.63 5.92518 7.3097 5.68717 8.15527C5.44058 9.03286 5.46209 9.94511 5.75555 10.7815C5.88021 11.1381 6.30365 11.8949 6.53161 12.1648C7.11953 12.8627 7.913 13.3699 8.79149 13.6024C9.42986 13.7706 10.0317 13.7975 10.6781 13.6904L10.926 13.6511L11.2057 14.112L11.4854 14.573L11.2487 14.421C10.7803 14.1096 10.2039 14.0409 9.68729 14.2399C9.13636 14.4498 8.86566 14.809 8.89354 15.3026C8.90415 15.5085 8.9203 15.5443 9.11104 15.8356C9.35542 16.2042 10.2646 17.2399 11.1228 18.1247C12.5894 19.6415 13.7699 20.6784 14.4168 21.0176C15.0345 21.3375 15.6869 21.5066 16.2193 21.4834L16.4969 21.472L16.9133 22.1698L17.3316 22.871L17.4732 22.8975L17.6148 22.924L19.6074 21.7736L21.5999 20.6232L21.6478 20.4873L21.6956 20.3514L21.2643 19.581C21.0289 19.1577 20.8432 18.8048 20.8602 18.795C20.9177 18.7618 21.1261 18.1228 21.1775 17.8134C21.2445 17.4139 21.226 16.8427 21.1401 16.6939C21.0014 16.4537 20.7216 16.3987 20.5169 16.5755C20.3938 16.6827 20.3615 16.8141 20.3848 17.1435C20.4062 17.501 20.3329 17.9131 20.1795 18.2723L20.0462 18.5884L18.2871 19.604L16.528 20.6196L16.2684 20.6387C15.5632 20.6985 14.887 20.4258 14.0502 19.7498C13.3164 19.1586 11.895 17.7826 11.0083 16.8015C10.5716 16.3184 9.80544 15.4211 9.7488 15.323C9.58474 15.0389 10.238 14.8422 10.6647 15.0423C10.8881 15.1479 10.9032 15.1662 12.1072 16.361C12.9705 17.2157 13.0887 17.3189 13.2236 17.3493C13.4384 17.4012 13.6549 17.2762 13.7112 17.0768L13.7464 16.9347L11.6839 13.3623C10.4945 11.3021 9.60178 9.72463 9.57715 9.6351C9.54719 9.54415 9.54858 9.42156 9.57966 9.32694C9.68769 8.99844 10.1118 8.92049 10.3552 9.18589C10.4204 9.25197 11.2016 10.5736 12.1723 12.255L13.8793 15.2116L14.034 15.2531C14.2528 15.3117 14.4558 15.1945 14.5144 14.9757L14.5559 14.821L13.7961 13.505C13.3801 12.7845 13.02 12.1218 12.994 12.0376C12.964 11.9467 12.9654 11.8241 12.9965 11.7295C13.1045 11.401 13.5286 11.323 13.7721 11.5884C13.8319 11.6531 14.2473 12.3334 14.6907 13.1013L15.4993 14.5019L15.654 14.5433C15.8728 14.6019 16.0757 14.4848 16.1344 14.266L16.1758 14.1112L15.4649 12.8799C15.0743 12.2033 14.7377 11.5812 14.7116 11.497C14.6817 11.4061 14.683 11.2835 14.7141 11.1888C14.8222 10.8603 15.2462 10.7824 15.4897 11.0478C15.5496 11.1124 15.9434 11.7556 16.3595 12.4761L17.1192 13.7921L17.274 13.8336C17.3967 13.8664 17.4592 13.8574 17.5708 13.793C17.6824 13.7285 17.7215 13.6789 17.7543 13.5562L17.7958 13.4015L17.1337 12.2547C16.7704 11.6254 16.4553 11.0406 16.4292 10.9564C16.358 10.7314 16.4399 10.5217 16.6361 10.4085C16.768 10.3323 16.8184 10.3258 16.9731 10.3672C17.0905 10.3987 17.1741 10.4497 17.2126 10.5086C17.2439 10.5627 17.6833 11.3239 18.1858 12.202C18.8153 13.3 19.1379 13.8354 19.2216 13.9179C19.3501 14.0467 19.5659 14.0845 19.7113 14.0005C19.8162 13.94 19.9278 13.7583 19.9269 13.6551C19.9218 13.5994 19.5544 12.9319 18.8708 11.7479C17.6462 9.62679 17.7145 9.7137 17.1862 9.57215C16.9621 9.5121 16.8036 9.49536 16.6617 9.52313C16.3935 9.57423 15.9929 9.81003 15.8368 10.0084L15.7178 10.1538L15.4307 10.094C15.0529 10.01 14.8069 10.0527 14.4649 10.2728L14.2001 10.4392L14.2609 10.1695C14.4148 9.46724 14.3563 8.63946 14.0962 7.89205C13.9608 7.50116 13.5335 6.76902 13.2589 6.4495C12.6812 5.77714 11.9019 5.30239 11.0186 5.07715C10.1353 4.8519 9.3026 4.88614 8.47633 5.17374C8.05981 5.3195 7.29918 5.76767 6.97394 6.0637ZM8.88415 5.90354C9.89834 5.59766 11.1517 5.80769 12.0242 6.4361C12.6513 6.88148 13.1603 7.60696 13.3676 8.3488C13.5522 9.00449 13.5598 9.62706 13.3906 10.248C13.2952 10.5827 13.2904 10.59 13.1606 10.6153C13.0014 10.6441 12.563 10.8927 12.4719 11.0084C12.4098 11.0804 12.3977 11.0829 12.3566 11.0118C12.3215 10.9509 12.3449 10.8743 12.4487 10.679C12.7447 10.1293 12.8456 9.38992 12.7134 8.76258C12.6248 8.33563 12.2905 7.69417 12.0009 7.38779C11.4177 6.76827 10.5736 6.43916 9.73036 6.50203C9.25668 6.54096 8.95089 6.63632 8.51111 6.89023C8.07133 7.14413 7.83585 7.36127 7.5653 7.75203C7.09065 8.44555 6.94936 9.35706 7.18984 10.1564C7.31621 10.5706 7.73676 11.2209 8.04852 11.4874C8.54122 11.9111 9.21346 12.177 9.82692 12.1927L10.1128 12.2036L10.3062 12.5385C10.5249 12.9174 10.5312 12.9047 10.1456 12.9244C9.23883 12.9788 8.26739 12.6556 7.59909 12.0762C7.14674 11.6833 6.70094 11.0205 6.52313 10.4782C6.1778 9.41913 6.36791 8.15466 7.01219 7.25496C7.44795 6.64253 8.17095 6.12136 8.88415 5.90354ZM9.58202 7.35447C11.0011 7.11704 12.1776 8.35022 11.9001 9.79143C11.8793 9.91169 11.8454 10.017 11.8285 10.0267C11.8116 10.0365 11.6223 9.73986 11.382 9.32376C10.8703 8.43744 10.8071 8.37473 10.3375 8.24891C9.94991 8.14792 9.71554 8.17949 9.3671 8.38066C9.01528 8.58379 8.87557 8.76368 8.77601 9.14592C8.65071 9.62421 8.67729 9.71712 9.18315 10.5933C9.42533 11.0128 9.58563 11.3217 9.56872 11.3314C9.52136 11.3588 9.14912 11.2219 8.92616 11.0935C8.33888 10.756 7.94749 10.1249 7.91005 9.44291C7.85663 8.43632 8.59095 7.52071 9.58202 7.35447ZM20.4611 19.8148L20.7052 20.2376L19.2167 21.097L17.7283 21.9564L17.4939 21.5504L17.2595 21.1445L18.5324 20.396C19.2307 19.9884 19.8966 19.5949 20.0111 19.5198L20.2169 19.3919L20.4611 19.8148Z" fill="black"/>
<path d="M19.9104 15.0718C19.874 15.165 19.884 15.2449 19.935 15.3643C19.9981 15.5128 20.0259 15.5374 20.1704 15.5847C20.5703 15.7147 20.8815 15.2148 20.5904 14.9137C20.3889 14.7053 20.0075 14.7947 19.9104 15.0718Z" fill="black"/>
</g>
<defs>
<clipPath id="clip0_6_2916">
<rect width="20" height="20" fill="white" transform="translate(0 10) rotate(-30)"/>
</clipPath>
</defs>
</svg>
