<svg width="161" height="30" viewBox="0 0 161 30" fill="none" xmlns="http://www.w3.org/2000/svg">
<path d="M55.12 9L49.06 23H45.86L39.82 9H43.32L47.58 19L51.9 9H55.12ZM58.7709 23.16C57.8776 23.16 57.0043 23.0533 56.1509 22.84C55.2976 22.6133 54.6176 22.3333 54.1109 22L55.1509 19.76C55.6309 20.0667 56.2109 20.32 56.8909 20.52C57.5709 20.7067 58.2376 20.8 58.8909 20.8C60.2109 20.8 60.8709 20.4733 60.8709 19.82C60.8709 19.5133 60.6909 19.2933 60.3309 19.16C59.9709 19.0267 59.4176 18.9133 58.6709 18.82C57.7909 18.6867 57.0643 18.5333 56.4909 18.36C55.9176 18.1867 55.4176 17.88 54.9909 17.44C54.5776 17 54.3709 16.3733 54.3709 15.56C54.3709 14.88 54.5643 14.28 54.9509 13.76C55.3509 13.2267 55.9243 12.8133 56.6709 12.52C57.4309 12.2267 58.3243 12.08 59.3509 12.08C60.1109 12.08 60.8643 12.1667 61.6109 12.34C62.3709 12.5 62.9976 12.7267 63.4909 13.02L62.4509 15.24C61.5043 14.7067 60.4709 14.44 59.3509 14.44C58.6843 14.44 58.1843 14.5333 57.8509 14.72C57.5176 14.9067 57.3509 15.1467 57.3509 15.44C57.3509 15.7733 57.5309 16.0067 57.8909 16.14C58.2509 16.2733 58.8243 16.4 59.6109 16.52C60.4909 16.6667 61.2109 16.8267 61.7709 17C62.3309 17.16 62.8176 17.46 63.2309 17.9C63.6443 18.34 63.8509 18.9533 63.8509 19.74C63.8509 20.4067 63.6509 21 63.2509 21.52C62.8509 22.04 62.2643 22.4467 61.4909 22.74C60.7309 23.02 59.8243 23.16 58.7709 23.16ZM76.3159 17.66C76.3159 17.7 76.2959 17.98 76.2559 18.5H68.1159C68.2626 19.1667 68.6093 19.6933 69.1559 20.08C69.7026 20.4667 70.3826 20.66 71.1959 20.66C71.7559 20.66 72.2493 20.58 72.6759 20.42C73.1159 20.2467 73.5226 19.98 73.8959 19.62L75.5559 21.42C74.5426 22.58 73.0626 23.16 71.1159 23.16C69.9026 23.16 68.8293 22.9267 67.8959 22.46C66.9626 21.98 66.2426 21.32 65.7359 20.48C65.2293 19.64 64.9759 18.6867 64.9759 17.62C64.9759 16.5667 65.2226 15.62 65.7159 14.78C66.2226 13.9267 66.9093 13.2667 67.7759 12.8C68.6559 12.32 69.6359 12.08 70.7159 12.08C71.7693 12.08 72.7226 12.3067 73.5759 12.76C74.4293 13.2133 75.0959 13.8667 75.5759 14.72C76.0693 15.56 76.3159 16.54 76.3159 17.66ZM70.7359 14.44C70.0293 14.44 69.4359 14.64 68.9559 15.04C68.4759 15.44 68.1826 15.9867 68.0759 16.68H73.3759C73.2693 16 72.9759 15.46 72.4959 15.06C72.0159 14.6467 71.4293 14.44 70.7359 14.44Z" fill="#CDD9F5"/>
<path d="M84.7531 12.08C85.7531 12.08 86.6598 12.3133 87.4731 12.78C88.2998 13.2333 88.9465 13.88 89.4131 14.72C89.8798 15.5467 90.1131 16.5133 90.1131 17.62C90.1131 18.7267 89.8798 19.7 89.4131 20.54C88.9465 21.3667 88.2998 22.0133 87.4731 22.48C86.6598 22.9333 85.7531 23.16 84.7531 23.16C83.2731 23.16 82.1465 22.6933 81.3731 21.76V23H78.3931V8.16H81.5131V13.38C82.2998 12.5133 83.3798 12.08 84.7531 12.08ZM84.2131 20.6C85.0131 20.6 85.6665 20.3333 86.1731 19.8C86.6931 19.2533 86.9531 18.5267 86.9531 17.62C86.9531 16.7133 86.6931 15.9933 86.1731 15.46C85.6665 14.9133 85.0131 14.64 84.2131 14.64C83.4131 14.64 82.7531 14.9133 82.2331 15.46C81.7265 15.9933 81.4731 16.7133 81.4731 17.62C81.4731 18.5267 81.7265 19.2533 82.2331 19.8C82.7531 20.3333 83.4131 20.6 84.2131 20.6ZM92.2017 8.16H95.3217V23H92.2017V8.16ZM103.337 23.16C102.204 23.16 101.184 22.9267 100.277 22.46C99.384 21.98 98.684 21.32 98.1773 20.48C97.6707 19.64 97.4173 18.6867 97.4173 17.62C97.4173 16.5533 97.6707 15.6 98.1773 14.76C98.684 13.92 99.384 13.2667 100.277 12.8C101.184 12.32 102.204 12.08 103.337 12.08C104.471 12.08 105.484 12.32 106.377 12.8C107.271 13.2667 107.971 13.92 108.477 14.76C108.984 15.6 109.237 16.5533 109.237 17.62C109.237 18.6867 108.984 19.64 108.477 20.48C107.971 21.32 107.271 21.98 106.377 22.46C105.484 22.9267 104.471 23.16 103.337 23.16ZM103.337 20.6C104.137 20.6 104.791 20.3333 105.297 19.8C105.817 19.2533 106.077 18.5267 106.077 17.62C106.077 16.7133 105.817 15.9933 105.297 15.46C104.791 14.9133 104.137 14.64 103.337 14.64C102.537 14.64 101.877 14.9133 101.357 15.46C100.837 15.9933 100.577 16.7133 100.577 17.62C100.577 18.5267 100.837 19.2533 101.357 19.8C101.877 20.3333 102.537 20.6 103.337 20.6ZM115.943 18.78L114.443 20.26V23H111.323V8.16H114.443V16.56L119.003 12.24H122.723L118.243 16.8L123.123 23H119.343L115.943 18.78ZM124.448 12.24H127.568V23H124.448V12.24ZM126.008 10.74C125.434 10.74 124.968 10.5733 124.608 10.24C124.248 9.90667 124.068 9.49333 124.068 9C124.068 8.50667 124.248 8.09333 124.608 7.76C124.968 7.42667 125.434 7.26 126.008 7.26C126.581 7.26 127.048 7.42 127.408 7.74C127.768 8.06 127.948 8.46 127.948 8.94C127.948 9.46 127.768 9.89333 127.408 10.24C127.048 10.5733 126.581 10.74 126.008 10.74ZM137.403 22.48C137.097 22.7067 136.717 22.88 136.263 23C135.823 23.1067 135.357 23.16 134.863 23.16C133.583 23.16 132.59 22.8333 131.883 22.18C131.19 21.5267 130.843 20.5667 130.843 19.3V14.88H129.183V12.48H130.843V9.86H133.963V12.48H136.643V14.88H133.963V19.26C133.963 19.7133 134.077 20.0667 134.303 20.32C134.543 20.56 134.877 20.68 135.303 20.68C135.797 20.68 136.217 20.5467 136.563 20.28L137.403 22.48ZM149.995 12.24V23H147.035V21.72C146.622 22.1867 146.128 22.5467 145.555 22.8C144.982 23.04 144.362 23.16 143.695 23.16C142.282 23.16 141.162 22.7533 140.335 21.94C139.508 21.1267 139.095 19.92 139.095 18.32V12.24H142.215V17.86C142.215 19.5933 142.942 20.46 144.395 20.46C145.142 20.46 145.742 20.22 146.195 19.74C146.648 19.2467 146.875 18.52 146.875 17.56V12.24H149.995ZM159.825 22.48C159.519 22.7067 159.139 22.88 158.685 23C158.245 23.1067 157.779 23.16 157.285 23.16C156.005 23.16 155.012 22.8333 154.305 22.18C153.612 21.5267 153.265 20.5667 153.265 19.3V14.88H151.605V12.48H153.265V9.86H156.385V12.48H159.065V14.88H156.385V19.26C156.385 19.7133 156.499 20.0667 156.725 20.32C156.965 20.56 157.299 20.68 157.725 20.68C158.219 20.68 158.639 20.5467 158.985 20.28L159.825 22.48Z" fill="white"/>
<g clip-path="url(#clip0_1_2)">
<path d="M5.13281 1.10742C5.04492 1.16602 4.91602 1.29492 4.85742 1.38281C4.75195 1.54102 4.74609 1.71094 4.74609 4.55273V7.55859H2.6543C0.697266 7.55859 0.544922 7.56445 0.386719 7.66992C0.298828 7.72852 0.169922 7.85742 0.111328 7.94531C0.00585938 8.10938 0 8.28516 0 11.7188C0 15.1523 0.00585938 15.3281 0.111328 15.4922C0.169922 15.5801 0.298828 15.709 0.386719 15.7676C0.544922 15.873 0.697266 15.8789 2.6543 15.8789H4.74609V18.2812V20.6836H2.6543C0.697266 20.6836 0.544922 20.6895 0.386719 20.7949C0.298828 20.8535 0.169922 20.9824 0.111328 21.0703C0.00585938 21.2344 0 21.4102 0 24.8438C0 28.2773 0.00585938 28.4531 0.111328 28.6172C0.169922 28.7051 0.298828 28.834 0.386719 28.8926C0.550781 28.998 0.949219 29.0039 15 29.0039C29.0508 29.0039 29.4492 28.998 29.6133 28.8926C29.7012 28.834 29.8301 28.7051 29.8887 28.6172C29.9941 28.4531 30 28.2773 30 24.8438C30 21.4102 29.9941 21.2344 29.8887 21.0703C29.8301 20.9824 29.7012 20.8535 29.6133 20.7949C29.4551 20.6895 29.3027 20.6836 27.3516 20.6836H25.2539V18.2812V15.8789H27.3516C29.3027 15.8789 29.4551 15.873 29.6133 15.7676C29.7012 15.709 29.8301 15.5801 29.8887 15.4922C29.9941 15.3281 30 15.1523 30 11.7188C30 8.28516 29.9941 8.10938 29.8887 7.94531C29.8301 7.85742 29.7012 7.72852 29.6133 7.66992C29.4492 7.56445 29.209 7.55859 22.6641 7.55859H15.8789V4.55273C15.8789 1.71094 15.873 1.54102 15.7676 1.38281C15.709 1.29492 15.5801 1.16602 15.4922 1.10742C15.3281 1.00195 15.123 0.996094 10.3125 0.996094C5.50195 0.996094 5.29688 1.00195 5.13281 1.10742ZM14.1211 5.15625V7.55859H10.3125H6.50391V5.15625V2.75391H10.3125H14.1211V5.15625ZM9.43359 11.7188V14.1211H5.5957H1.75781V11.7188V9.31641H5.5957H9.43359V11.7188ZM18.8086 11.7188V14.1211H15H11.1914V11.7188V9.31641H15H18.8086V11.7188ZM28.2422 11.7188V14.1211H24.4043H20.5664V11.7188V9.31641H24.4043H28.2422V11.7188ZM14.1211 18.2812V20.6836H10.3125H6.50391V18.2812V15.8789H10.3125H14.1211V18.2812ZM23.4961 18.2812V20.6836H19.6875H15.8789V18.2812V15.8789H19.6875H23.4961V18.2812ZM9.43359 24.8438V27.2461H5.5957H1.75781V24.8438V22.4414H5.5957H9.43359V24.8438ZM18.8086 24.8438V27.2461H15H11.1914V24.8438V22.4414H15H18.8086V24.8438ZM28.2422 24.8438V27.2461H24.4043H20.5664V24.8438V22.4414H24.4043H28.2422V24.8438Z" fill="#CDD9F5"/>
</g>
<defs>
<clipPath id="clip0_1_2">
<rect width="30" height="30" fill="white"/>
</clipPath>
</defs>
</svg>
