<svg width="20" height="20" viewBox="0 0 20 20" fill="none" xmlns="http://www.w3.org/2000/svg">
<g id="free-icon-fast-delivery-1670965 1" clip-path="url(#clip0_9_3476)">
<g id="Group">
<path id="Vector" d="M2.08203 4.17575C1.84375 4.32419 1.81641 4.42966 1.80469 5.24216L1.78906 5.97653H1.35547C0.863281 5.97653 0.71875 6.03122 0.605469 6.24606C0.519531 6.41403 0.53125 6.74997 0.625 6.90231C0.746094 7.10544 0.878906 7.14841 1.36719 7.14841H1.79688V7.71481V8.28122H1.07422C0.0859375 8.28122 0 8.32809 0 8.87106C0 9.41403 0.152344 9.49216 1.19141 9.49216H1.79688V10.0586V10.625H1.07422C0.0859375 10.625 0 10.6718 0 11.2148C0 11.7578 0.152344 11.8359 1.19141 11.8359H1.79688V12.7461C1.79688 13.6132 1.80078 13.664 1.88672 13.8281C2.03516 14.125 2.13672 14.1562 2.91797 14.1718L3.58984 14.1875L3.61328 14.3086C3.66406 14.5429 3.90234 14.9804 4.10156 15.2031C4.52734 15.6797 5.12109 15.9414 5.78125 15.9453C6.21484 15.9492 6.49219 15.8789 6.89062 15.6718C7.375 15.4179 7.83203 14.8593 7.96484 14.3437L8.01172 14.1797H10.9688H13.9258L14.0234 14.457C14.1797 14.9218 14.4922 15.3164 14.9102 15.5898C15.6719 16.0859 16.7109 16.0703 17.4492 15.5507C17.8555 15.2656 18.125 14.9101 18.2891 14.4414L18.375 14.1875L18.9648 14.1718C19.4883 14.1601 19.5664 14.1523 19.6914 14.0742C19.9766 13.8945 19.9688 13.9765 19.9531 11.6406L19.9414 9.55075L19.7969 9.24606C19.5273 8.68356 18.9609 8.26559 18.4023 8.21481L18.168 8.19137L17.5156 7.09762C17.1562 6.49606 16.7617 5.87887 16.6406 5.72653C16.0703 5.00778 15.2617 4.48044 14.3438 4.22653L13.9648 4.12106L8.08594 4.10934C2.30469 4.10153 2.20312 4.10153 2.08203 4.17575ZM13.0156 7.11716C13.0273 8.93747 13.0273 8.96872 13.1133 9.10153C13.1602 9.17575 13.2578 9.27341 13.3281 9.31637C13.4531 9.39059 13.543 9.3945 15.8984 9.41403C18.2148 9.43356 18.3477 9.43747 18.4648 9.50778C18.5312 9.55075 18.625 9.64841 18.668 9.72653C18.7461 9.87106 18.75 9.92184 18.75 11.4218V12.9687L18.5273 12.9648H18.3008L18.1484 12.6484C17.6289 11.5664 16.2305 11.125 15.0938 11.6836C14.6523 11.9023 14.2344 12.3554 14.0703 12.7929L14.0078 12.9687H10.9766L7.94922 12.9648L7.80078 12.6523C7.28516 11.5625 5.88281 11.125 4.73047 11.6914C4.35938 11.8711 3.96484 12.2773 3.77344 12.664L3.625 12.9687H3.31641H3.00781V11.2343V9.49606L4.50391 9.48434C5.91406 9.47262 6.00391 9.46872 6.12891 9.3945C6.48438 9.18356 6.5 8.56637 6.15625 8.35544C6.04297 8.28512 5.93359 8.28122 4.52344 8.28122H3.00781V7.71481V7.14841H3.67188H4.33203L4.47266 7.02731C4.73047 6.80075 4.74609 6.3945 4.51172 6.13669L4.38281 5.99606L3.69531 5.98434L3.00781 5.97262V5.62106V5.27341H8.00781H13.0039L13.0156 7.11716ZM14.6953 5.67184C15.0742 5.86716 15.4648 6.19528 15.7188 6.53122C15.8281 6.67184 16.1055 7.10934 16.3359 7.49606L16.7539 8.20309H15.4844H14.2188V6.832V5.46481L14.3086 5.48825C14.3555 5.50387 14.5312 5.58591 14.6953 5.67184ZM6.21094 12.7382C6.91016 13.0547 7.05469 13.957 6.48438 14.4648C6.26562 14.664 6.08594 14.7343 5.79688 14.7343C5.08203 14.7382 4.57031 14.0234 4.80078 13.3437C4.875 13.1328 5.13672 12.8593 5.37109 12.75C5.625 12.6289 5.96484 12.625 6.21094 12.7382ZM16.4922 12.7031C16.7148 12.7695 17.0039 13.0429 17.1094 13.2851C17.2109 13.5312 17.207 13.9179 17.0938 14.1445C16.7773 14.8007 15.9375 14.9375 15.4102 14.4257C15.207 14.2304 15.1055 13.9843 15.1094 13.6953C15.1094 13.4062 15.1797 13.2265 15.3789 13.0078C15.6562 12.6992 16.0859 12.582 16.4922 12.7031Z" fill="white"/>
</g>
</g>
<defs>
<clipPath id="clip0_9_3476">
<rect width="20" height="20" fill="white"/>
</clipPath>
</defs>
</svg>
