<svg width="40" height="40" viewBox="0 0 40 40" fill="none" xmlns="http://www.w3.org/2000/svg">
<path d="M8.10444 0.524338C7.3859 0.858543 7.06005 1.4434 7.06005 2.41259V3.03922H5.02141C3.22507 3.03922 2.91593 3.05593 2.44804 3.20632C1.44543 3.51546 0.718538 4.15045 0.259008 5.11964L0 5.67107V21.3369V37.0027L0.259008 37.5541C0.718538 38.5233 1.44543 39.1583 2.44804 39.4674C2.97441 39.6345 3.2752 39.6345 16 39.6345C28.7248 39.6345 29.0256 39.6345 29.552 39.4674C30.5546 39.1583 31.2815 38.5233 31.741 37.5541L32 37.0027V21.3369V5.67107L31.741 5.11964C31.2815 4.15045 30.5546 3.51546 29.552 3.20632C29.0841 3.05593 28.7749 3.03922 26.9786 3.03922H24.9399V2.41259C24.9399 1.4434 24.6141 0.858543 23.8956 0.524338C23.5781 0.373947 23.1854 0.365593 16 0.365593C8.81462 0.365593 8.42193 0.373947 8.10444 0.524338ZM23.1018 3.95828V5.71285H16H8.89817V3.95828V2.20371H16H23.1018V3.95828ZM7.06005 5.50397C7.06005 6.47316 7.3859 7.05802 8.10444 7.39222C8.42193 7.54261 8.81462 7.55097 15.9833 7.55097C24.2298 7.55097 23.8454 7.57603 24.3885 7.06638C24.7812 6.69875 24.9399 6.25593 24.9399 5.52068V4.87734H26.7864C27.9311 4.87734 28.7582 4.91076 28.9587 4.96925C29.3932 5.10293 29.8611 5.50397 30.0449 5.91337C30.1953 6.23922 30.2037 6.84914 30.2037 21.3369C30.2037 35.8246 30.1953 36.4345 30.0449 36.7604C29.8611 37.1698 29.3932 37.5708 28.9587 37.7045C28.4992 37.8382 3.50078 37.8382 3.04125 37.7045C2.60679 37.5708 2.1389 37.1698 1.95509 36.7604C1.8047 36.4345 1.79634 35.8246 1.79634 21.3369C1.79634 6.77395 1.8047 6.24758 1.95509 5.91337C2.13055 5.52904 2.56501 5.1447 2.98277 4.98596C3.16658 4.92747 3.91854 4.8857 5.16345 4.8857L7.06005 4.87734V5.50397Z" fill="white" fill-opacity="0.7"/>
<path d="M6.1827 12.1714C5.99889 12.2716 5.72317 12.539 5.58114 12.7646L5.30542 13.1656V14.611C5.30542 15.9562 5.32213 16.0732 5.49759 16.4157C5.6062 16.6163 5.85686 16.892 6.04902 17.034L6.40829 17.2847H7.97905H9.54981L9.90908 17.034C10.1012 16.892 10.3519 16.6163 10.4605 16.4157C10.636 16.0732 10.6527 15.9562 10.6527 14.611V13.1823L10.4104 12.798C10.2683 12.5724 10.0093 12.3217 9.7921 12.1964C9.43284 11.9875 9.39106 11.9792 7.97069 11.9792C6.61717 11.9792 6.49184 11.9959 6.1827 12.1714ZM8.81456 14.6528V15.4883H7.97905H7.14354V14.6528V13.8173H7.97905H8.81456V14.6528Z" fill="#CDD9F5"/>
<path d="M12.6913 14.0177C12.4574 14.2517 12.4072 14.3686 12.4072 14.6527C12.4072 14.9368 12.4574 15.0538 12.6913 15.2877L12.9754 15.5718L19.6177 15.5551C26.0093 15.53 26.2683 15.5216 26.4354 15.3713C26.8114 15.0287 26.8114 14.2767 26.4354 13.9342C26.2683 13.7838 26.0093 13.7754 19.6177 13.7504L12.9754 13.7337L12.6913 14.0177Z" fill="#CDD9F5"/>
<path d="M6.1827 20.1921C5.99889 20.2924 5.72317 20.5597 5.58114 20.7853L5.30542 21.1864V22.6318C5.30542 23.977 5.32213 24.0939 5.49759 24.4365C5.6062 24.637 5.85686 24.9127 6.04902 25.0548L6.40829 25.3054H7.97905H9.54981L9.90908 25.0548C10.1012 24.9127 10.3519 24.637 10.4605 24.4365C10.636 24.0939 10.6527 23.977 10.6527 22.6318V21.2031L10.4104 20.8187C10.2683 20.5931 10.0093 20.3425 9.7921 20.2172C9.43284 20.0083 9.39106 19.9999 7.97069 19.9999C6.61717 19.9999 6.49184 20.0166 6.1827 20.1921ZM8.81456 22.6736V23.5091H7.97905H7.14354V22.6736V21.8381H7.97905H8.81456V22.6736Z" fill="#CDD9F5"/>
<path d="M12.6913 22.0387C12.4574 22.2727 12.4072 22.3896 12.4072 22.6737C12.4072 22.9578 12.4574 23.0748 12.6913 23.3087L12.9754 23.5928L19.6177 23.5761C26.0093 23.551 26.2683 23.5426 26.4354 23.3923C26.8114 23.0497 26.8114 22.2977 26.4354 21.9552C26.2683 21.8048 26.0093 21.7964 19.6177 21.7714L12.9754 21.7547L12.6913 22.0387Z" fill="#CDD9F5"/>
<path d="M6.1827 28.2131C5.99889 28.3134 5.72317 28.5807 5.58114 28.8063L5.30542 29.2074V30.6528C5.30542 31.998 5.32213 32.1149 5.49759 32.4575C5.6062 32.658 5.85686 32.9337 6.04902 33.0758L6.40829 33.3264H7.97905H9.54981L9.90908 33.0758C10.1012 32.9337 10.3519 32.658 10.4605 32.4575C10.636 32.1149 10.6527 31.998 10.6527 30.6528V29.2241L10.4104 28.8397C10.2683 28.6141 10.0093 28.3635 9.7921 28.2382C9.43284 28.0293 9.39106 28.0209 7.97069 28.0209C6.61717 28.0209 6.49184 28.0376 6.1827 28.2131ZM8.81456 30.6946V31.5301H7.97905H7.14354V30.6946V29.8591H7.97905H8.81456V30.6946Z" fill="#CDD9F5"/>
<path d="M12.6913 30.0595C12.4574 30.2934 12.4072 30.4104 12.4072 30.6945C12.4072 30.9785 12.4574 31.0955 12.6913 31.3295L12.9754 31.6135L19.6177 31.5968C26.0093 31.5717 26.2683 31.5634 26.4354 31.413C26.8114 31.0704 26.8114 30.3185 26.4354 29.9759C26.2683 29.8255 26.0093 29.8172 19.6177 29.7921L12.9754 29.7754L12.6913 30.0595Z" fill="#CDD9F5"/>
</svg>
