<svg width="40" height="40" viewBox="0 0 40 40" fill="none" xmlns="http://www.w3.org/2000/svg">
<g id="free-icon-social-media-1848867 1" clip-path="url(#clip0_9_3299)">
<g id="Group">
<path id="Vector" d="M7.90625 0.156237C6.98437 0.398424 6.29687 0.804674 5.54687 1.56249C4.46875 2.6328 3.98438 3.78905 3.98438 5.3203C3.98438 8.4453 6.53906 10.875 9.64844 10.6797C11.6562 10.5547 13.3203 9.43749 14.1953 7.61717C14.9609 6.0078 14.8203 3.90624 13.8437 2.41405C13.1172 1.30467 11.9687 0.468737 10.7344 0.156237C9.9375 -0.0468884 8.69531 -0.0468884 7.90625 0.156237ZM10.4844 1.56249C12.4609 2.17186 13.6797 4.31249 13.1641 6.28905C12.7812 7.73436 11.5469 8.90624 10.0937 9.21092C7.71094 9.70311 5.39062 7.78124 5.39062 5.31249C5.39844 3.64061 6.49219 2.14061 8.125 1.58592C8.79687 1.35155 9.78125 1.34374 10.4844 1.56249Z" fill="white" fill-opacity="0.7"/>
<path id="Vector_2" d="M29.2343 0.156281C27.5702 0.593781 26.1093 1.97659 25.578 3.62503C25.2968 4.47659 25.2343 5.67191 25.4296 6.51566C25.9921 9.06253 28.3593 10.8438 30.9765 10.6797C33.8593 10.5 36.0155 8.21097 36.0155 5.32816C36.0155 4.40628 35.8593 3.75003 35.4452 2.89066C35.0233 2.02347 34.0702 1.03909 33.2265 0.601593C32.0702 3.05176e-05 30.4999 -0.171844 29.2343 0.156281ZM31.8124 1.56253C33.4452 2.06253 34.6015 3.62503 34.6093 5.31253C34.6093 7.78128 32.289 9.70316 29.9062 9.21097C27.3827 8.68753 26.0155 5.95316 27.1171 3.61722C27.9218 1.90628 29.9999 1.00003 31.8124 1.56253Z" fill="white" fill-opacity="0.7"/>
<path id="Vector_3" d="M2.42188 10.75C1.51562 10.9922 0.703125 11.6797 0.289062 12.5625L0.0390625 13.0859L0.015625 19.6094C0.0078125 23.1953 0.015625 26.2109 0.0390625 26.3047C0.140625 26.7109 0.195312 26.7187 4.84375 26.7187C9.55469 26.7187 9.50781 26.7266 9.67188 26.2656C9.78125 25.9531 9.70312 25.6484 9.46875 25.4687C9.28906 25.3203 9.14844 25.3125 7.33594 25.3125H5.39062V21.6016C5.39062 17.4766 5.39844 17.5156 4.89844 17.3516C4.60156 17.25 4.41406 17.2969 4.16406 17.5234L3.98438 17.6797V21.5V25.3125H2.69531H1.40625V19.4297V13.5469L1.60938 13.1406C2.05469 12.2422 2.59375 12.0312 4.40625 12.0312H5.66406L7.22656 13.9141C8.08594 14.9531 8.85938 15.8516 8.94531 15.9062C9.14062 16.0469 9.53125 16.0469 9.72656 15.9062C9.8125 15.8516 10.5859 14.9531 11.4453 13.9141L13.0078 12.0234L14.4141 12.0469C15.7891 12.0703 15.8281 12.0781 16.2578 12.2969C16.9844 12.6719 17.5 12.4531 17.5 11.7734C17.5 11.3906 17.2109 11.1016 16.5781 10.8437C16.1719 10.6875 15.9844 10.6641 14.2734 10.6406C12.8047 10.6172 12.3906 10.6328 12.2891 10.7187C12.2188 10.7734 11.5312 11.5781 10.7578 12.5C9.98438 13.4219 9.32812 14.1641 9.30469 14.1562C9.28125 14.1406 8.6875 13.4375 7.98438 12.5937C7.28125 11.7422 6.60938 10.9609 6.47656 10.8359L6.25 10.625L4.54688 10.6328C3.3125 10.6328 2.73438 10.6641 2.42188 10.75Z" fill="white" fill-opacity="0.7"/>
<path id="Vector_4" d="M23.75 10.75C23.2422 10.8828 22.7734 11.1484 22.3906 11.5156C22.1562 11.7344 22.1094 11.8281 22.1094 12.1016C22.1094 12.3437 22.1562 12.4766 22.3047 12.6172C22.5859 12.9062 22.9453 12.875 23.3672 12.5391C23.8984 12.1172 24.2891 12.0312 25.7344 12.0312H26.9922L28.5547 13.9141C29.4141 14.9531 30.1875 15.8516 30.2734 15.9062C30.3594 15.9687 30.5312 16.0156 30.6641 16.0156C30.7969 16.0156 30.9688 15.9687 31.0547 15.9062C31.1406 15.8516 31.9141 14.9531 32.7734 13.9141L34.3359 12.0312H35.5938C37.4062 12.0312 37.9453 12.2422 38.3906 13.1406L38.5938 13.5469V19.4297V25.3125H37.3047H36.0156V21.1719V17.0234L35.8203 16.8359C35.5469 16.5547 35.1328 16.5703 34.8359 16.8672L34.6094 17.0937V21.2031V25.3125H32.6641C30.8516 25.3125 30.7109 25.3203 30.5312 25.4687C30.2969 25.6484 30.2188 25.9531 30.3281 26.2656C30.4922 26.7266 30.4453 26.7187 35.1562 26.7187C39.8047 26.7187 39.8594 26.7109 39.9609 26.3047C39.9844 26.2109 39.9922 23.1953 39.9844 19.6094L39.9609 13.0859L39.7188 12.5781C39.2656 11.6328 38.5 10.9922 37.5312 10.7422C37.1562 10.6484 36.6875 10.625 35.3438 10.6406L33.6328 10.6641L32.1719 12.4062C31.375 13.3672 30.6953 14.1484 30.6641 14.1484C30.6406 14.1484 30.0703 13.4844 29.3984 12.6797C28.7266 11.875 28.0547 11.0781 27.9062 10.9141L27.625 10.625L25.8984 10.6328C24.6484 10.6328 24.0625 10.6641 23.75 10.75Z" fill="white" fill-opacity="0.7"/>
<path id="Vector_5" d="M19.0235 13.3906C17.1251 13.7656 15.6016 15.0469 14.9532 16.8281C13.8751 19.8047 15.5938 23.0547 18.672 23.875C19.3516 24.0547 20.6485 24.0547 21.3282 23.875C23.4688 23.3047 25.0079 21.5547 25.3204 19.3516C25.4845 18.1953 25.2188 16.9297 24.6016 15.8828C24.2423 15.2812 23.3516 14.4062 22.7345 14.0391C21.6641 13.4141 20.2032 13.1641 19.0235 13.3906ZM20.8048 14.8047C22.711 15.2031 24.1798 17.1797 23.9454 19.0234C23.711 20.8594 22.461 22.1953 20.6407 22.5547C20.0548 22.6719 19.9454 22.6719 19.3595 22.5547C17.3829 22.1641 16.086 20.6328 16.0704 18.6719C16.0626 16.8359 17.3751 15.1953 19.1641 14.8047C19.797 14.6641 20.1641 14.6641 20.8048 14.8047Z" fill="#CDD9F5"/>
<path id="Vector_6" d="M12.9453 24.1406C11.8281 24.4922 10.9609 25.4609 10.7109 26.625C10.6484 26.9141 10.625 28.9688 10.625 33.3281V39.6172L10.8203 39.8047L11.0078 40H19.9844C28.7109 40 28.9688 39.9922 29.1484 39.8516L29.3359 39.7031V33.1094V26.5234L29.1172 26.0547C28.7891 25.3516 28.5234 25.0078 28.0234 24.6328C27.25 24.0625 26.8438 23.9844 24.7578 23.9844H22.9688L21.5234 25.7188C20.7266 26.6797 20.0391 27.4609 20 27.4609C19.9609 27.4609 19.3438 26.7578 18.6328 25.8984C17.9219 25.0391 17.25 24.2578 17.1406 24.1562C16.9453 23.9922 16.9062 23.9844 15.1719 23.9922C13.6641 23.9922 13.3281 24.0156 12.9453 24.1406ZM17.8906 27.2656C18.7578 28.2969 19.5391 29.1953 19.6328 29.2578C19.8516 29.4062 20.1562 29.4062 20.375 29.25C20.4766 29.1797 21.2578 28.2891 22.1172 27.2578L23.6797 25.3906H25.0234C25.9141 25.3984 26.4609 25.4297 26.6484 25.5C27.0859 25.6562 27.4531 25.9766 27.7031 26.4219L27.9297 26.8359L27.9531 32.7109L27.9688 38.5938H26.6797H25.3906V34.5703C25.3906 31.1875 25.375 30.5 25.2734 30.3203C25.1406 30.0625 25.0156 30 24.6094 30C24.375 30 24.2734 30.0469 24.1484 30.2031C23.9844 30.4062 23.9844 30.4844 23.9844 34.5V38.5938H20H16.0156V34.8516C16.0156 32.7891 15.9922 31.0469 15.9688 30.9766C15.9062 30.8203 15.5312 30.625 15.2812 30.625C15.1719 30.625 14.9844 30.7109 14.8672 30.8125L14.6484 31L14.625 34.7969L14.6016 38.5938H13.3125H12.0312L12.0469 32.7188L12.0703 26.8359L12.2969 26.4219C12.5469 25.9766 12.9141 25.6562 13.3516 25.5C13.5391 25.4297 14.0859 25.3984 14.9766 25.3906H16.3203L17.8906 27.2656Z" fill="#CDD9F5"/>
</g>
</g>
<defs>
<clipPath id="clip0_9_3299">
<rect width="40" height="40" fill="white"/>
</clipPath>
</defs>
</svg>
