<svg width="20" height="20" viewBox="0 0 20 20" fill="none" xmlns="http://www.w3.org/2000/svg">
<path d="M8.91726 6.12131C8.85539 6.32239 8.89793 6.50027 9.05067 6.66849C9.14928 6.77869 9.19762 6.81543 9.28849 6.84443C9.35423 6.86377 10 6.87924 10.7773 6.87924L12.152 6.8773L8.89019 10.1584C5.25135 13.8205 5.56265 13.4821 5.58198 13.7567C5.59165 13.9094 5.62839 13.9848 5.77146 14.1279C5.91841 14.2749 5.99188 14.3097 6.1601 14.3193C6.43659 14.3329 6.18136 14.5687 9.7912 10.9589L13.0221 7.72804L13.0221 9.12789C13.0259 9.89742 13.0395 10.5722 13.0588 10.6263C13.111 10.783 13.3276 10.9647 13.5035 10.9937C13.7085 11.0324 13.8689 10.9802 14.0198 10.8294C14.0855 10.7598 14.1551 10.6708 14.1706 10.6283C14.186 10.5857 14.2015 9.55326 14.2034 8.33322C14.2054 6.20445 14.2034 6.10971 14.1338 5.99756C14.0565 5.86995 13.8902 5.73074 13.7897 5.70367C13.6756 5.67467 9.37163 5.70174 9.27882 5.73267C9.13768 5.78101 8.96753 5.96276 8.91726 6.12131Z" fill="white"/>
</svg>
