<svg width="20" height="20" viewBox="0 0 20 20" fill="none" xmlns="http://www.w3.org/2000/svg">
<g id="free-icon-call-center-boy-97398 1" clip-path="url(#clip0_9_3457)">
<g id="Group">
<path id="Vector" d="M5.07432 0.0585918C4.82433 0.195311 4.76573 0.445311 4.88292 0.898436C5.04698 1.55078 5.28136 2.11328 5.60948 2.65625L5.73839 2.875L5.51573 4.09765L5.29698 5.32031L5.15636 5.39062C4.79698 5.57422 4.60948 5.99609 4.60948 6.62109C4.60948 7.60937 5.21104 8.69141 5.89854 8.93359C6.0587 8.98828 6.09776 9.02734 6.19542 9.21484C6.36339 9.53516 6.69542 10.0586 6.93761 10.3789L7.14854 10.6602V11.418V12.1758L6.12511 12.1992C5.38292 12.2148 5.01573 12.2383 4.80479 12.2852C3.47276 12.582 2.4337 13.5703 2.02745 14.9258C1.94542 15.1953 1.93761 15.3086 1.92198 16.5352C1.90636 17.9297 1.91417 18 2.08214 18.1562C2.1837 18.25 3.14464 18.668 3.83995 18.9219C5.16807 19.4023 6.57433 19.7305 8.04698 19.9062C8.53136 19.9648 8.9337 19.9805 10.0782 19.9805C11.7384 19.9805 12.3517 19.9219 13.7892 19.6289C15.1134 19.3594 16.8907 18.7578 17.7189 18.3008C18.1056 18.0859 18.0939 18.1367 18.0782 16.5625C18.0626 15.2266 18.0626 15.2109 17.9571 14.8711C17.5587 13.5742 16.6095 12.6445 15.3595 12.3164C15.0157 12.2266 14.8829 12.2187 13.9571 12.1992L12.9298 12.1758V11.3516V10.5234L13.1798 10.1875C13.3165 10.0039 13.5353 9.65625 13.6681 9.41797C13.8048 9.17969 13.9337 8.98437 13.961 8.98437C13.9884 8.98437 14.1173 8.92969 14.2501 8.86328C14.8946 8.54297 15.4298 7.5039 15.4298 6.57812C15.4298 6.25781 15.3556 5.92187 15.2462 5.7539C15.2032 5.6914 15.1759 5.5039 15.1524 5.16406C15.1173 4.58594 15.0431 4.13672 14.9064 3.66797C14.3517 1.75 12.8439 0.394529 10.9024 0.0624981C10.3829 -0.0273457 5.23448 -0.0312519 5.07432 0.0585918ZM10.879 1.16406C12.7228 1.57812 13.8634 2.91797 14.0548 4.89062L14.086 5.19531H13.8009C13.4298 5.19531 12.3048 5.09375 11.836 5.01562C9.41417 4.62109 7.60167 3.64453 6.66417 2.23828C6.41417 1.85937 6.16808 1.3789 6.10948 1.15625L6.08214 1.04687L8.30479 1.0664C10.3595 1.08203 10.5548 1.08984 10.879 1.16406ZM7.00401 4.24609C7.06261 4.3164 7.06651 4.35547 7.03136 4.60156C6.96104 5.10937 6.77745 5.39062 6.51573 5.39062C6.40636 5.39062 6.39854 5.38281 6.41808 5.28125C6.42979 5.22265 6.48839 4.89844 6.54698 4.5625L6.65636 3.94922L6.79308 4.05859C6.8712 4.12109 6.96495 4.20703 7.00401 4.24609ZM9.35557 5.52734C10.1173 5.80469 10.9923 6.01172 11.8946 6.13281C12.4024 6.19922 13.586 6.28906 13.9767 6.28906H14.336V6.5039C14.336 6.9375 14.1564 7.46484 13.9142 7.74219C13.8009 7.86719 13.7696 7.88281 13.6017 7.8789C13.2814 7.875 13.1876 7.95703 12.9064 8.51172C12.5314 9.24219 12.1915 9.72266 11.6993 10.2148C11.0665 10.8477 10.5939 11.0898 9.99229 11.0937C9.41807 11.0937 8.9337 10.8477 8.32042 10.2344C7.96495 9.87891 7.57433 9.41406 7.63683 9.41406C7.64854 9.41406 7.78136 9.44922 7.92979 9.48828C8.08214 9.53125 8.33214 9.57812 8.48839 9.59375C8.70323 9.61328 8.79307 9.64062 8.86729 9.71094C9.03136 9.85937 9.15636 9.88281 9.81651 9.88281C10.5431 9.88281 10.6915 9.83984 10.8829 9.58594C10.9845 9.45703 10.9962 9.40234 11.0079 9.09375C11.0274 8.67578 10.9454 8.46875 10.6954 8.29687C10.5353 8.18359 10.5274 8.18359 9.89073 8.17187C9.16807 8.15625 9.00792 8.19141 8.8087 8.39844C8.67979 8.53516 8.63292 8.53906 8.28526 8.45312C7.71495 8.30859 7.24229 7.96875 6.90636 7.45312C6.71886 7.16406 6.44542 6.62109 6.44542 6.52734C6.44542 6.51172 6.54698 6.48437 6.67198 6.47265C7.30089 6.41797 7.88292 5.86328 8.04698 5.16797L8.09386 4.96875L8.52745 5.17969C8.76964 5.29297 9.14073 5.45312 9.35557 5.52734ZM11.797 12.2539C11.797 12.8477 11.8048 12.9219 11.879 13.043C11.9532 13.168 11.9532 13.1797 11.8907 13.375C11.6954 13.9687 11.1798 14.7578 10.3517 15.7187L10.0196 16.1055L9.79307 15.8555C9.10557 15.0977 8.41026 14.0937 8.17589 13.5117L8.08214 13.2773L8.17979 13.0742C8.27745 12.8867 8.28136 12.8398 8.28136 12.2734C8.28136 11.9453 8.29307 11.6797 8.31261 11.6875C8.73448 11.9023 9.13682 12.0742 9.34386 12.125C9.70714 12.2109 10.3009 12.207 10.672 12.1133C10.9493 12.0391 11.4884 11.7969 11.6603 11.6641C11.7032 11.6328 11.7501 11.6016 11.7696 11.6016C11.7853 11.6016 11.797 11.8945 11.797 12.2539ZM7.06651 13.5937C7.34776 14.5117 8.23839 15.832 9.40245 17.0469C9.8087 17.4687 10.004 17.543 10.2774 17.3711C10.5274 17.2187 11.3634 16.2773 11.8985 15.5469C12.504 14.7227 12.8556 14.0742 13.0079 13.4844L13.0509 13.3203H13.879C14.4532 13.3203 14.7892 13.3398 14.9806 13.3789C15.6876 13.5273 16.3595 14.043 16.6759 14.6875C16.9454 15.2344 16.961 15.332 16.9806 16.4297L17.0001 17.4062L16.6524 17.5664C15.1876 18.2383 13.2462 18.7148 11.3399 18.8711C10.6095 18.9297 8.73839 18.8945 8.08604 18.8125C6.47667 18.6016 4.98839 18.2148 3.63292 17.6562C3.36339 17.5469 3.11339 17.4453 3.07433 17.4336C3.00401 17.4102 3.00011 17.3594 3.01573 16.4297C3.03136 15.5469 3.04308 15.4219 3.1212 15.1758C3.35558 14.4492 3.85948 13.8672 4.51964 13.5625C4.95714 13.3633 5.19151 13.3281 6.14073 13.3242L6.98448 13.3203L7.06651 13.5937Z" fill="white"/>
</g>
</g>
<defs>
<clipPath id="clip0_9_3457">
<rect width="20" height="20" fill="white"/>
</clipPath>
</defs>
</svg>
