<svg width="20" height="20" viewBox="0 0 20 20" fill="none" xmlns="http://www.w3.org/2000/svg">
<g id="free-icon-phone-call-126509 1" clip-path="url(#clip0_9_3428)">
<g id="Group">
<path id="Vector" d="M10.7384 0.0898495C10.6564 0.144537 10.5782 0.250006 10.5314 0.359381C10.465 0.523443 10.461 0.562506 10.504 0.710943C10.5939 1.00391 10.7384 1.10547 11.2306 1.20704C13.7345 1.72657 15.8282 3.11719 17.3087 5.25391C18.0235 6.28126 18.504 7.44141 18.8087 8.87501C18.879 9.20704 18.9728 9.35938 19.1642 9.43751C19.4532 9.5586 19.7657 9.46485 19.922 9.21094C20.0196 9.05079 20.0196 8.9336 19.922 8.45313C19.3478 5.64844 17.6759 3.19922 15.2345 1.59376C14.1837 0.898443 12.961 0.382818 11.6915 0.097662C11.1368 -0.027338 10.9142 -0.027338 10.7384 0.0898495Z" fill="white"/>
<path id="Vector_2" d="M3.35939 1.20709C2.79299 1.36334 2.5508 1.55084 1.43752 2.70709C0.531267 3.64849 0.359392 3.88678 0.179705 4.42193C0.125017 4.58209 0.0625172 4.84381 0.0351734 5.00396C-0.0195141 5.35553 0.0117359 6.25396 0.0937672 6.69928C0.398455 8.35553 1.38283 10.4805 2.69533 12.3204C4.39455 14.7032 6.47658 16.6446 8.84377 18.0626C11.6836 19.7618 14.1719 20.3868 15.6953 19.7774C16.1719 19.586 16.461 19.3516 17.4258 18.3751C18.6289 17.1524 18.7695 16.9219 18.7695 16.1524C18.7656 15.7032 18.6914 15.4415 18.4531 15.0782C18.375 14.961 17.6875 14.2383 16.918 13.4727C15.6875 12.2462 15.4961 12.0704 15.2539 11.9454C14.8086 11.7188 14.375 11.6641 13.9258 11.7774C13.4649 11.8985 13.2735 12.0391 12.4102 12.8907L11.5938 13.6915L11.2383 13.5001C9.48049 12.5587 7.19924 10.254 6.38283 8.58209L6.28127 8.37506L7.01955 7.63678C7.4258 7.22662 7.83205 6.78521 7.91799 6.6524C8.14455 6.31256 8.25002 5.97271 8.25002 5.59381C8.25002 5.21881 8.19924 5.0235 8.01564 4.66803C7.89455 4.42584 7.71095 4.23053 6.44924 2.9649C4.89845 1.41412 4.78127 1.31646 4.25783 1.19537C3.9297 1.11724 3.6758 1.12115 3.35939 1.20709ZM4.1797 2.42584C4.25392 2.46099 4.91799 3.09771 5.65236 3.83599C6.87892 5.06646 6.9883 5.19146 7.04299 5.37115C7.16408 5.78912 7.03908 5.97271 5.94924 7.0235C5.08205 7.85943 5.01955 7.95318 5.0508 8.3399C5.06642 8.54303 5.1133 8.67975 5.30861 9.07818C5.82814 10.129 6.59377 11.1329 7.78908 12.3243C8.80861 13.3438 9.82424 14.1055 10.8672 14.6446C11.3594 14.8985 11.4219 14.9219 11.6406 14.9219C11.8047 14.9219 11.9297 14.8946 12.043 14.8399C12.1367 14.7891 12.582 14.3868 13.1055 13.8712C13.8399 13.1446 14.0352 12.9766 14.1641 12.9376C14.582 12.8165 14.6445 12.8633 16.1602 14.3868C17.5078 15.7383 17.6172 15.8712 17.6172 16.1719C17.6172 16.4454 17.4883 16.6212 16.6524 17.4727C15.7617 18.379 15.6563 18.4805 15.3828 18.6172C14.668 18.9805 13.4805 18.8751 12.0117 18.3165C9.57424 17.3868 6.95314 15.5313 5.09767 13.4258C3.8633 12.0196 2.97267 10.7149 2.26564 9.2774C1.17189 7.05084 0.902361 5.39068 1.47658 4.43365C1.59377 4.23834 3.29689 2.51568 3.45705 2.43365C3.70705 2.29693 3.9258 2.29693 4.1797 2.42584Z" fill="white"/>
<path id="Vector_3" d="M10.7421 3.63288C10.5703 3.67585 10.3632 3.89851 10.3281 4.0821C10.2617 4.44538 10.4882 4.72663 10.9218 4.80476C12.7929 5.14851 14.4413 6.62117 15.0312 8.47663C15.0937 8.67976 15.1601 8.92585 15.1757 9.0196C15.246 9.43757 15.4492 9.65632 15.7695 9.66023C16.1406 9.66413 16.3671 9.44148 16.3671 9.07429C16.3671 8.81648 16.1796 8.09382 15.996 7.63679C15.2187 5.71492 13.5117 4.21882 11.5351 3.73445C11.0351 3.61335 10.9062 3.59382 10.7421 3.63288Z" fill="white"/>
</g>
</g>
<defs>
<clipPath id="clip0_9_3428">
<rect width="20" height="20" fill="white"/>
</clipPath>
</defs>
</svg>
