<svg width="20" height="20" viewBox="0 0 20 20" fill="none" xmlns="http://www.w3.org/2000/svg">
<g id="free-icon-wallet-7094088 1" clip-path="url(#clip0_9_3490)">
<g id="Group">
<path id="Vector" d="M9.80469 2.50391L4.82422 4.375H3.48828C2.28906 4.375 2.13281 4.38281 1.91797 4.44922C1.34375 4.62891 0.855469 5.12109 0.6875 5.69922C0.632812 5.89062 0.625 6.54688 0.625 11.8828C0.625 17.8242 0.625 17.8555 0.707031 18.0977C0.902344 18.6836 1.375 19.1445 1.94922 19.3125C2.14062 19.3672 2.96094 19.375 10.0078 19.375C17.8477 19.375 17.8555 19.375 18.0977 19.293C18.6836 19.0977 19.1445 18.625 19.3125 18.0508C19.3672 17.8594 19.375 17.2031 19.375 11.875C19.375 6.54688 19.3672 5.89062 19.3125 5.69922C19.1445 5.12109 18.6562 4.62891 18.082 4.44922C17.8945 4.39062 17.7227 4.375 17.2852 4.375H16.7266L16.1523 2.66016C15.8398 1.71484 15.5469 0.894531 15.5 0.839844C15.457 0.785156 15.3711 0.714844 15.3125 0.683594C15.0273 0.535156 15.1172 0.507812 9.80469 2.50391ZM14.9648 3.19141C15.1602 3.78906 15.332 4.30078 15.3438 4.32422C15.3555 4.36328 14.6602 4.375 11.9492 4.375L8.53516 4.37109L11.5234 3.24609C13.168 2.625 14.5312 2.11719 14.5586 2.11328C14.582 2.10938 14.7578 2.57422 14.9648 3.19141ZM17.5938 5.66406C17.7852 5.70703 17.9258 5.80859 18.0273 5.98047C18.1055 6.11328 18.1055 6.18359 18.1055 11.875C18.1055 17.5664 18.1055 17.6367 18.0273 17.7695C17.9258 17.9414 17.7852 18.043 17.5938 18.0859C17.3906 18.1367 2.60938 18.1367 2.40625 18.0859C2.21484 18.043 2.07422 17.9414 1.97266 17.7695C1.90234 17.6484 1.89453 17.5547 1.88281 16.6289L1.87109 15.625H3.61328C5.27344 15.625 5.36719 15.6211 5.59766 15.543C6.18359 15.3477 6.64453 14.875 6.8125 14.3008C6.86719 14.1172 6.875 13.7773 6.875 11.8711C6.875 9.80469 6.87109 9.64062 6.80078 9.41797C6.62109 8.84375 6.12891 8.35547 5.55078 8.1875C5.37109 8.13281 5.07031 8.125 3.60156 8.125H1.87109L1.88281 7.11719C1.89453 6.19531 1.90234 6.10156 1.97266 5.98047C2.07031 5.81641 2.21484 5.70312 2.38672 5.66406C2.57422 5.62109 17.4062 5.61719 17.5938 5.66406ZM5.26953 9.47266C5.44141 9.57422 5.54297 9.71484 5.58594 9.90625C5.63281 10.1055 5.63281 13.6445 5.58594 13.8438C5.54297 14.0352 5.44141 14.1758 5.26953 14.2773C5.14453 14.3516 5.05469 14.3555 3.50781 14.3672L1.875 14.3789V11.875V9.37109L3.50781 9.38281C5.05469 9.39453 5.14453 9.39844 5.26953 9.47266Z" fill="white"/>
</g>
</g>
<defs>
<clipPath id="clip0_9_3490">
<rect width="20" height="20" fill="white"/>
</clipPath>
</defs>
</svg>
